<mxfile host="app.diagrams.net" modified="2023-09-23T14:27:10.915Z" agent="Mozilla/5.0 (Windows NT 10.0; Win64; x64) AppleWebKit/537.36 (KHTML, like Gecko) Chrome/116.0.0.0 Safari/537.36" version="21.8.1" etag="wGBEb2yf8fm6V6JyxLmG" type="device">
  <diagram id="e50d5a8b-f89a-59a1-6115-5f8c8060d788" name="Page-1">
    <mxGraphModel dx="1050" dy="581" grid="0" gridSize="10" guides="1" tooltips="1" connect="1" arrows="1" fold="1" page="1" pageScale="1" pageWidth="1169" pageHeight="827" math="0" shadow="0">
      <root>
        <mxCell id="0" />
        <mxCell id="1" parent="0" />
        <mxCell id="41fe28ffb9dbdb2c-1" value="Habit" style="swimlane;fontStyle=1;align=center;verticalAlign=top;childLayout=stackLayout;horizontal=1;startSize=26;horizontalStack=0;resizeParent=1;resizeParentMax=0;resizeLast=0;collapsible=1;marginBottom=0;swimlaneFillColor=#ffffff;strokeColor=#FF8000;strokeWidth=1;fillColor=none;fontSize=13;fontColor=#FF8000;" parent="1" vertex="1">
          <mxGeometry x="140" y="345" width="210" height="160" as="geometry">
            <mxRectangle x="10" y="120" width="60" height="26" as="alternateBounds" />
          </mxGeometry>
        </mxCell>
        <mxCell id="41fe28ffb9dbdb2c-2" value="+ habitID: int&#xa;+ habitName: string" style="text;strokeColor=none;fillColor=none;align=left;verticalAlign=top;spacingLeft=4;spacingRight=4;overflow=hidden;rotatable=0;points=[[0,0.5],[1,0.5]];portConstraint=eastwest;fontColor=#000066;" parent="41fe28ffb9dbdb2c-1" vertex="1">
          <mxGeometry y="26" width="210" height="54" as="geometry" />
        </mxCell>
        <mxCell id="41fe28ffb9dbdb2c-3" value="" style="line;strokeWidth=1;fillColor=none;align=left;verticalAlign=middle;spacingTop=-1;spacingLeft=3;spacingRight=3;rotatable=0;labelPosition=right;points=[];portConstraint=eastwest;fontColor=#000066;strokeColor=#FF8000;" parent="41fe28ffb9dbdb2c-1" vertex="1">
          <mxGeometry y="80" width="210" height="8" as="geometry" />
        </mxCell>
        <mxCell id="41fe28ffb9dbdb2c-4" value="+ newHabit(string): Habit *&#xa;+ displayHabit(): void&#xa;+ deleteHabit(Habit *, int *): void&#xa;+ checkin(HabitHistory *): void" style="text;strokeColor=none;fillColor=none;align=left;verticalAlign=top;spacingLeft=4;spacingRight=4;overflow=hidden;rotatable=0;points=[[0,0.5],[1,0.5]];portConstraint=eastwest;fontColor=#000066;" parent="41fe28ffb9dbdb2c-1" vertex="1">
          <mxGeometry y="88" width="210" height="72" as="geometry" />
        </mxCell>
        <mxCell id="41fe28ffb9dbdb2c-8" value="" style="endArrow=diamondThin;endFill=0;endSize=24;html=1;strokeColor=#FF8000;fontSize=13;fontColor=#000066;exitX=0.5;exitY=0;entryX=0.447;entryY=1;entryPerimeter=0;" parent="1" source="41fe28ffb9dbdb2c-1" target="41fe28ffb9dbdb2c-25" edge="1">
          <mxGeometry width="160" relative="1" as="geometry">
            <mxPoint x="160" y="527" as="sourcePoint" />
            <mxPoint x="244" y="277" as="targetPoint" />
          </mxGeometry>
        </mxCell>
        <mxCell id="41fe28ffb9dbdb2c-9" value="" style="endArrow=diamondThin;endFill=1;endSize=24;html=1;strokeColor=#FF8000;fontSize=13;fontColor=#000066;exitX=0;exitY=0.5;" parent="1" source="41fe28ffb9dbdb2c-19" target="41fe28ffb9dbdb2c-2" edge="1">
          <mxGeometry width="160" relative="1" as="geometry">
            <mxPoint x="366" y="385" as="sourcePoint" />
            <mxPoint x="310" y="386" as="targetPoint" />
          </mxGeometry>
        </mxCell>
        <mxCell id="41fe28ffb9dbdb2c-10" value="1..1" style="text;html=1;resizable=0;points=[];autosize=1;align=left;verticalAlign=top;spacingTop=-4;fontSize=13;fontColor=#000066;" parent="1" vertex="1">
          <mxGeometry x="250" y="225" width="40" height="20" as="geometry" />
        </mxCell>
        <mxCell id="41fe28ffb9dbdb2c-11" value="0..*" style="text;html=1;resizable=0;points=[];autosize=1;align=left;verticalAlign=top;spacingTop=-4;fontSize=13;fontColor=#FF8000;" parent="1" vertex="1">
          <mxGeometry x="216" y="327" width="40" height="20" as="geometry" />
        </mxCell>
        <mxCell id="41fe28ffb9dbdb2c-12" value="1..1" style="text;html=1;resizable=0;points=[];autosize=1;align=left;verticalAlign=top;spacingTop=-4;fontSize=13;fontColor=#FF8000;" parent="1" vertex="1">
          <mxGeometry x="395" y="379" width="40" height="20" as="geometry" />
        </mxCell>
        <mxCell id="41fe28ffb9dbdb2c-13" value="1..1" style="text;html=1;resizable=0;points=[];autosize=1;align=left;verticalAlign=top;spacingTop=-4;fontSize=13;fontColor=#FF8000;" parent="1" vertex="1">
          <mxGeometry x="351" y="403" width="40" height="20" as="geometry" />
        </mxCell>
        <mxCell id="41fe28ffb9dbdb2c-18" value="HabitHistory" style="swimlane;fontStyle=1;align=center;verticalAlign=top;childLayout=stackLayout;horizontal=1;startSize=26;horizontalStack=0;resizeParent=1;resizeParentMax=0;resizeLast=0;collapsible=1;marginBottom=0;swimlaneFillColor=#ffffff;strokeColor=#FF8000;strokeWidth=1;fillColor=none;fontSize=13;fontColor=#FF8000;" parent="1" vertex="1">
          <mxGeometry x="421" y="345" width="270" height="130" as="geometry" />
        </mxCell>
        <mxCell id="41fe28ffb9dbdb2c-19" value="+ habitID: int&#xa;+ habitCheckins: list(Checkin)" style="text;strokeColor=none;fillColor=none;align=left;verticalAlign=top;spacingLeft=4;spacingRight=4;overflow=hidden;rotatable=0;points=[[0,0.5],[1,0.5]];portConstraint=eastwest;fontColor=#000066;" parent="41fe28ffb9dbdb2c-18" vertex="1">
          <mxGeometry y="26" width="270" height="54" as="geometry" />
        </mxCell>
        <mxCell id="41fe28ffb9dbdb2c-20" value="" style="line;strokeWidth=1;fillColor=none;align=left;verticalAlign=middle;spacingTop=-1;spacingLeft=3;spacingRight=3;rotatable=0;labelPosition=right;points=[];portConstraint=eastwest;fontColor=#000066;strokeColor=#FF8000;" parent="41fe28ffb9dbdb2c-18" vertex="1">
          <mxGeometry y="80" width="270" height="8" as="geometry" />
        </mxCell>
        <mxCell id="41fe28ffb9dbdb2c-21" value="+ newCheckin(): Checkin *&#xa;+ displayHistory(habitCheckins): void" style="text;strokeColor=none;fillColor=none;align=left;verticalAlign=top;spacingLeft=4;spacingRight=4;overflow=hidden;rotatable=0;points=[[0,0.5],[1,0.5]];portConstraint=eastwest;fontColor=#000066;" parent="41fe28ffb9dbdb2c-18" vertex="1">
          <mxGeometry y="88" width="270" height="42" as="geometry" />
        </mxCell>
        <mxCell id="41fe28ffb9dbdb2c-22" value="User" style="swimlane;fontStyle=1;align=center;verticalAlign=top;childLayout=stackLayout;horizontal=1;startSize=26;horizontalStack=0;resizeParent=1;resizeParentMax=0;resizeLast=0;collapsible=1;marginBottom=0;swimlaneFillColor=#ffffff;strokeColor=#FF8000;strokeWidth=1;fillColor=none;fontSize=13;fontColor=#FF8000;" parent="1" vertex="1">
          <mxGeometry x="160" y="148" width="190" height="120" as="geometry" />
        </mxCell>
        <mxCell id="41fe28ffb9dbdb2c-23" value="+ habits: list(Habit)&#xa;+ habitNum: int" style="text;strokeColor=none;fillColor=none;align=left;verticalAlign=top;spacingLeft=4;spacingRight=4;overflow=hidden;rotatable=0;points=[[0,0.5],[1,0.5]];portConstraint=eastwest;fontColor=#000066;" parent="41fe28ffb9dbdb2c-22" vertex="1">
          <mxGeometry y="26" width="190" height="46" as="geometry" />
        </mxCell>
        <mxCell id="41fe28ffb9dbdb2c-24" value="" style="line;strokeWidth=1;fillColor=none;align=left;verticalAlign=middle;spacingTop=-1;spacingLeft=3;spacingRight=3;rotatable=0;labelPosition=right;points=[];portConstraint=eastwest;fontColor=#000066;strokeColor=#FF8000;" parent="41fe28ffb9dbdb2c-22" vertex="1">
          <mxGeometry y="72" width="190" height="8" as="geometry" />
        </mxCell>
        <mxCell id="41fe28ffb9dbdb2c-25" value="+ newUser(string): int&#xa;+ displayHabits(habits): list(habit)" style="text;strokeColor=none;fillColor=none;align=left;verticalAlign=top;spacingLeft=4;spacingRight=4;overflow=hidden;rotatable=0;points=[[0,0.5],[1,0.5]];portConstraint=eastwest;fontColor=#000066;" parent="41fe28ffb9dbdb2c-22" vertex="1">
          <mxGeometry y="80" width="190" height="40" as="geometry" />
        </mxCell>
        <mxCell id="41fe28ffb9dbdb2c-33" value="1..1" style="text;html=1;resizable=0;points=[];autosize=1;align=left;verticalAlign=top;spacingTop=-4;fontSize=13;fontColor=#FF8000;" parent="1" vertex="1">
          <mxGeometry x="254" y="269" width="40" height="20" as="geometry" />
        </mxCell>
        <mxCell id="41fe28ffb9dbdb2c-37" value="" style="endArrow=block;endSize=16;endFill=0;html=1;strokeColor=#FF8000;fontSize=13;fontColor=#000066;exitX=0.5;exitY=0;" parent="1" source="41fe28ffb9dbdb2c-22" target="2743ce97418336eb-2" edge="1">
          <mxGeometry width="160" relative="1" as="geometry">
            <mxPoint x="390" y="237" as="sourcePoint" />
            <mxPoint x="420" y="86" as="targetPoint" />
          </mxGeometry>
        </mxCell>
        <mxCell id="41fe28ffb9dbdb2c-44" value="0..*" style="text;html=1;resizable=0;points=[];autosize=1;align=left;verticalAlign=top;spacingTop=-4;fontSize=13;fontColor=#FF8000;" parent="1" vertex="1">
          <mxGeometry x="351" y="201" width="40" height="20" as="geometry" />
        </mxCell>
        <mxCell id="2743ce97418336eb-1" value="Person" style="swimlane;fontStyle=1;align=center;verticalAlign=top;childLayout=stackLayout;horizontal=1;startSize=26;horizontalStack=0;resizeParent=1;resizeParentMax=0;resizeLast=0;collapsible=1;marginBottom=0;swimlaneFillColor=#ffffff;strokeColor=#FF8000;fillColor=#ffffff;fontFamily=Tahoma;fontSize=13;fontColor=#FF8000;" parent="1" vertex="1">
          <mxGeometry x="421" y="41" width="199" height="104" as="geometry" />
        </mxCell>
        <mxCell id="2743ce97418336eb-2" value="+ ID: int&#xa;+ name: string" style="text;strokeColor=none;fillColor=none;align=left;verticalAlign=top;spacingLeft=4;spacingRight=4;overflow=hidden;rotatable=0;points=[[0,0.5],[1,0.5]];portConstraint=eastwest;fontColor=#000066;" parent="2743ce97418336eb-1" vertex="1">
          <mxGeometry y="26" width="199" height="44" as="geometry" />
        </mxCell>
        <mxCell id="2743ce97418336eb-3" value="" style="line;strokeWidth=1;fillColor=none;align=left;verticalAlign=middle;spacingTop=-1;spacingLeft=3;spacingRight=3;rotatable=0;labelPosition=right;points=[];portConstraint=eastwest;fontColor=#FF8000;strokeColor=#FF8000;" parent="2743ce97418336eb-1" vertex="1">
          <mxGeometry y="70" width="199" height="8" as="geometry" />
        </mxCell>
        <mxCell id="2743ce97418336eb-4" value="newPerson(string): int" style="text;strokeColor=none;fillColor=none;align=left;verticalAlign=top;spacingLeft=4;spacingRight=4;overflow=hidden;rotatable=0;points=[[0,0.5],[1,0.5]];portConstraint=eastwest;fontColor=#000066;" parent="2743ce97418336eb-1" vertex="1">
          <mxGeometry y="78" width="199" height="26" as="geometry" />
        </mxCell>
      </root>
    </mxGraphModel>
  </diagram>
</mxfile>
